<svg width="41" height="40" viewBox="0 0 41 40" fill="none" xmlns="http://www.w3.org/2000/svg">
<path d="M20.6832 0C31.7051 0 40.638 8.93443 40.638 19.9546C40.638 30.9764 31.7035 39.9092 20.6832 39.9092C9.66139 39.9092 0.728516 30.9748 0.728516 19.9546C0.728516 8.93282 9.663 0 20.6832 0Z" fill="#0057FF"/>
<mask id="mask0_6299_146" style="mask-type:luminance" maskUnits="userSpaceOnUse" x="10" y="13" width="22" height="14">
<path d="M31.1408 13.6484H10.2271V26.3401H31.1408V13.6484Z" fill="white"/>
</mask>
<g mask="url(#mask0_6299_146)">
<path d="M16.1229 13.6484C16.7064 13.6484 17.2463 13.6936 17.7412 13.8257C18.236 13.9144 18.6422 14.0965 19.0033 14.319C19.3643 14.5414 19.6319 14.8573 19.8156 15.2619C19.9929 15.6665 20.088 16.1597 20.088 16.698C20.088 17.325 19.9542 17.8618 19.6367 18.2664C19.3643 18.6709 18.9194 19.0304 18.3746 19.2979C19.1419 19.5204 19.727 19.9233 20.0816 20.4617C20.4378 21 20.6651 21.6706 20.6651 22.4346C20.6651 23.0616 20.5313 23.5983 20.304 24.048C20.0816 24.4977 19.7205 24.9007 19.3143 25.1683C18.9081 25.4391 18.4133 25.6615 17.8733 25.7937C17.3334 25.9274 16.795 26.0161 16.255 26.0161L10.2251 26.0274V13.6517H16.1213L16.1229 13.6484ZM15.7618 18.6693C16.2567 18.6693 16.6629 18.5355 16.9739 18.3099C17.285 18.0826 17.4252 17.6829 17.4252 17.1896C17.4252 16.9189 17.3801 16.6513 17.2915 16.474C17.2028 16.2967 17.069 16.1581 16.8853 16.0243C16.708 15.9356 16.5242 15.847 16.3018 15.8019C16.0794 15.7567 15.8505 15.7567 15.5845 15.7567H12.9765V18.6725L15.7634 18.6677L15.7618 18.6693ZM15.8956 23.9626C16.168 23.9626 16.4356 23.9175 16.6628 23.874C16.8853 23.8288 17.1142 23.7418 17.2915 23.6032C17.4688 23.4646 17.609 23.3308 17.7428 23.1099C17.8314 22.8891 17.9201 22.6167 17.9201 22.3008C17.9201 21.6738 17.7428 21.2257 17.3801 20.9098C17.0191 20.6374 16.5242 20.5052 15.9391 20.5052H12.9749V23.9578H15.8956V23.9626Z" fill="white"/>
<path d="M24.5836 23.9164C24.9447 24.2758 25.4846 24.4547 26.2019 24.4547C26.6967 24.4547 27.1481 24.321 27.5091 24.0953C27.8702 23.8229 28.0926 23.5569 28.1829 23.2861H30.3847C30.0236 24.3612 29.4836 25.1269 28.7663 25.6201C28.0491 26.0698 27.1932 26.3358 26.1584 26.3358C25.4411 26.3358 24.806 26.2036 24.2225 25.9763C23.6391 25.7539 23.1877 25.438 22.7815 24.9899C22.3754 24.5853 22.0643 24.0921 21.8805 23.5102C21.6581 22.9283 21.563 22.3013 21.563 21.5808C21.563 20.9103 21.6516 20.2785 21.8805 19.6966C22.1078 19.1147 22.4205 18.6215 22.8267 18.1718C23.2329 17.7672 23.7277 17.4078 24.2677 17.1853C24.8512 16.9629 25.4363 16.8259 26.1584 16.8259C26.9256 16.8259 27.5994 16.9597 28.1829 17.2756C28.7663 17.5915 29.2177 17.9461 29.5787 18.4845C29.9398 18.9777 30.2074 19.5596 30.3911 20.1866C30.4798 20.812 30.5249 21.4454 30.4797 22.1595H23.955C23.955 22.8912 24.2225 23.5618 24.5836 23.9212V23.9164ZM27.4205 19.205C27.1029 18.889 26.6081 18.7117 26.0246 18.7117C25.6184 18.7117 25.3073 18.8004 25.0349 18.9342C24.7625 19.068 24.5852 19.2501 24.4063 19.4274C24.229 19.6047 24.1339 19.832 24.0887 20.0528C24.0436 20.2752 24.0001 20.4574 24.0001 20.6347H28.0491C27.9604 19.969 27.7315 19.5209 27.4205 19.205ZM23.4601 14.5H28.4988V15.7089H23.4601V14.5Z" fill="white"/>
</g>
</svg>
