<svg width="41" height="40" viewBox="0 0 41 40" fill="none" xmlns="http://www.w3.org/2000/svg">
<path d="M20.4715 0C31.4761 0 40.3951 8.95476 40.3951 20C40.3951 31.0469 31.4745 40 20.4715 40C9.46681 40 0.547852 31.0452 0.547852 20C0.547852 8.95315 9.46842 0 20.4715 0Z" fill="#F3AFE4"/>
<mask id="mask0_6299_128" style="mask-type:luminance" maskUnits="userSpaceOnUse" x="7" y="7" width="27" height="26">
<path d="M33.2229 7.19922L7.71973 7.19922L7.71973 32.8002H33.2229V7.19922Z" fill="white"/>
</mask>
<g mask="url(#mask0_6299_128)">
<path fill-rule="evenodd" clip-rule="evenodd" d="M7.71987 19.9973C7.71987 12.9327 13.4266 7.19922 20.4707 7.19922C27.5147 7.19922 33.2215 12.9375 33.2215 20.0021C33.2215 27.0667 27.5147 32.8002 20.4707 32.8002H19.4359V32.7533C12.8794 32.2251 7.71826 26.7129 7.71826 19.9973H7.71987ZM20.7893 30.7194C26.5443 30.5514 31.1551 25.8147 31.1551 20.0021C31.1551 14.1895 26.3721 9.27514 20.4723 9.27514C14.5724 9.27514 9.78948 14.0781 9.78948 19.9973C9.78948 25.9165 14.5757 30.7194 20.4723 30.7194H20.7893Z" fill="#AB5697"/>
<path fill-rule="evenodd" clip-rule="evenodd" d="M15.3093 10.6177C15.1676 10.5724 15.0212 10.5272 14.8667 10.4739L15.5314 8.50781C15.5925 8.52881 15.7019 8.56435 15.8307 8.60474C16.0608 8.67905 16.3505 8.77114 16.5243 8.83415L16.534 8.83737L16.5436 8.84061C16.5903 8.85838 16.6418 8.87776 16.6949 8.89876C16.9621 9.00054 17.292 9.12494 17.5688 9.25579L17.5817 9.26225L17.6364 9.28971C17.7667 9.3511 17.9615 9.4432 18.124 9.52074C18.2157 9.56436 18.2962 9.60313 18.3493 9.62898L18.3735 9.64029L18.3976 9.6532C18.3976 9.6532 18.4105 9.65967 18.4169 9.66451C18.4732 9.69521 18.5778 9.75014 18.6776 9.81153L18.705 9.82768L18.713 9.83253C18.7243 9.83899 18.7404 9.84868 18.7581 9.85838C18.7742 9.86807 18.7903 9.87614 18.8064 9.88584C18.8096 9.88745 18.8128 9.88907 18.816 9.89069C18.8241 9.89553 18.8353 9.90038 18.8434 9.90684C18.8434 9.90684 18.8595 9.91654 18.874 9.92462C18.8868 9.93108 18.9045 9.94239 18.9287 9.95531C19.0011 9.99732 19.117 10.0636 19.2248 10.1266C19.3358 10.1912 19.5064 10.2929 19.632 10.3802C19.7671 10.4626 19.9136 10.566 20.0134 10.6338C20.0311 10.6467 20.0472 10.6581 20.0617 10.6677C20.1373 10.7146 20.2113 10.7663 20.2628 10.8035C20.3368 10.8568 20.4173 10.9165 20.4897 10.9715C20.5235 10.9973 20.5541 11.0199 20.5831 11.0425C20.6217 11.0716 20.6571 11.0991 20.6941 11.1266C20.7231 11.1492 20.7488 11.1669 20.7682 11.1815C20.7778 11.1879 20.7858 11.1944 20.7907 11.1976C20.7955 11.2009 20.7987 11.2025 20.7987 11.2025L20.8261 11.2202L20.8518 11.2396C21.9929 12.112 23.01 13.1379 23.8774 14.2816V14.2833C24.8366 15.553 25.5946 16.9634 26.1192 18.4642C27.6835 22.8519 27.2232 27.9214 24.7641 31.923L23.0035 30.8325C25.123 27.3834 25.5318 22.9747 24.1703 19.1621V19.1589L24.1687 19.1556C23.7149 17.86 23.0598 16.6387 22.2294 15.5385C21.4779 14.5482 20.5992 13.6613 19.6175 12.9068C19.5628 12.8697 19.5032 12.8245 19.4533 12.7873C19.4163 12.7598 19.3729 12.7259 19.3294 12.6936C19.3004 12.671 19.2715 12.65 19.2457 12.6306C19.1749 12.5773 19.1105 12.5288 19.0574 12.49C19.0091 12.4561 18.9898 12.4432 18.9898 12.4432L18.9592 12.4254L18.9238 12.4012C18.8707 12.3656 18.8241 12.3317 18.7806 12.3026C18.6857 12.2364 18.61 12.1847 18.5328 12.1379L18.4829 12.1072L18.4362 12.0716C18.4282 12.0668 18.4072 12.0522 18.367 12.028C18.3139 11.9957 18.2495 11.9569 18.1819 11.9165C18.0838 11.8584 17.9953 11.8083 17.9244 11.7679C17.8923 11.7485 17.8633 11.7324 17.8392 11.7194H17.8375C17.8375 11.7194 17.8279 11.713 17.8198 11.7081C17.8166 11.7081 17.815 11.7049 17.8118 11.7033C17.7957 11.6952 17.7748 11.6823 17.7522 11.671C17.7265 11.6564 17.6959 11.6387 17.6653 11.6209C17.6492 11.6112 17.6187 11.5934 17.5833 11.5708C17.5414 11.545 17.4964 11.5207 17.4416 11.4917C17.4416 11.4917 17.4416 11.4917 17.44 11.4917C17.3757 11.461 17.2952 11.4222 17.2099 11.3818C17.0506 11.3059 16.8719 11.2203 16.7496 11.1621L16.7368 11.1556L16.6804 11.1282C16.4857 11.0377 16.2507 10.9488 15.99 10.8487C15.9337 10.8277 15.8741 10.8051 15.8146 10.7825C15.6537 10.7243 15.4863 10.671 15.3093 10.6161V10.6177Z" fill="#AB5697"/>
<path fill-rule="evenodd" clip-rule="evenodd" d="M19.6664 15.5599C22.7885 14.9945 25.6692 13.2368 27.6391 10.7344L29.2613 12.0219C26.9841 14.9137 23.6608 16.946 20.0333 17.6035C18.2277 17.9299 16.3705 17.9412 14.56 17.6084C12.7527 17.2853 11.0098 16.6342 9.43262 15.6843L10.498 13.904C11.8563 14.7231 13.3626 15.2853 14.9253 15.5648H14.9285H14.9317C16.4896 15.8523 18.0957 15.8442 19.668 15.5599H19.6664Z" fill="#AB5697"/>
<path fill-rule="evenodd" clip-rule="evenodd" d="M14.1382 30.5242C15.9036 21.4773 25.0881 16.4822 32.5989 18.5371L32.055 20.5403C25.6788 18.7956 17.698 23.0847 16.1676 30.9232L14.1382 30.5242Z" fill="#AB5697"/>
</g>
</svg>
