<svg width="41" height="40" viewBox="0 0 41 40" fill="none" xmlns="http://www.w3.org/2000/svg">
<rect x="0.123535" width="40" height="40" rx="20" fill="#2C3036"/>
<g clip-path="url(#clip0_6299_166)">
<path d="M22.8235 22.7C20.6235 24.97 20.4635 27.8 20.2735 34C26.0535 34 30.0435 33.98 32.1035 31.98C34.1035 29.92 34.1235 25.74 34.1235 20.15C27.9235 20.35 25.0935 20.5 22.8235 22.7ZM6.12354 20.15C6.12354 25.74 6.14354 29.92 8.14354 31.98C10.2035 33.98 14.1935 34 19.9735 34C19.7735 27.8 19.6235 24.97 17.4235 22.7C15.1535 20.5 12.3235 20.34 6.12354 20.15ZM19.9735 6C14.2035 6 10.2035 6.02 8.14354 8.02C6.14354 10.08 6.12354 14.26 6.12354 19.85C12.3235 19.65 15.1535 19.5 17.4235 17.3C19.6235 15.03 19.7835 12.2 19.9735 6ZM22.8235 17.3C20.6235 15.03 20.4635 12.2 20.2735 6C26.0535 6 30.0435 6.02 32.1035 8.02C34.1035 10.08 34.1235 14.26 34.1235 19.85C27.9235 19.65 25.0935 19.5 22.8235 17.3Z" fill="#2C3036"/>
<path d="M34.1235 20.15V19.85C27.9235 19.65 25.0935 19.5 22.8235 17.3C20.6235 15.03 20.4635 12.2 20.2735 6H19.9735C19.7735 12.2 19.6235 15.03 17.4235 17.3C15.1535 19.5 12.3235 19.66 6.12354 19.85V20.15C12.3235 20.35 15.1535 20.5 17.4235 22.7C19.6235 24.97 19.7835 27.8 19.9735 34H20.2735C20.4735 27.8 20.6235 24.97 22.8235 22.7C25.0935 20.5 27.9235 20.34 34.1235 20.15Z" fill="white"/>
</g>
<defs>
<clipPath id="clip0_6299_166">
<rect width="28" height="28" fill="white" transform="translate(6.12354 6)"/>
</clipPath>
</defs>
</svg>
