<svg width="41" height="40" viewBox="0 0 41 40" fill="none" xmlns="http://www.w3.org/2000/svg">
<path d="M40.8806 19.9546C40.8806 8.93407 31.9465 0 20.9259 0C9.90532 0 0.971191 8.93407 0.971191 19.9546C0.971191 29.3125 7.41417 37.165 16.1057 39.3217V26.0527H11.991V19.9546H16.1057V17.327C16.1057 10.5352 19.1795 7.38719 25.8476 7.38719C27.1119 7.38719 29.2933 7.63543 30.1857 7.88286V13.4103C29.7148 13.3608 28.8966 13.3361 27.8805 13.3361C24.6088 13.3361 23.3444 14.5756 23.3444 17.7979V19.9546H29.8624L28.7426 26.0527H23.3444V39.7631C33.2252 38.5698 40.8814 30.157 40.8814 19.9546H40.8806Z" fill="#0866FF"/>
<path d="M28.7418 26.0522L29.8617 19.9541H23.3437V17.7974C23.3437 14.5752 24.608 13.3356 27.8798 13.3356C28.8959 13.3356 29.714 13.3603 30.185 13.4098V7.88239C29.2926 7.63416 27.1111 7.38672 25.8468 7.38672C19.1787 7.38672 16.1049 10.5348 16.1049 17.3265V19.9541H11.9902V26.0522H16.1049V39.3213C17.6486 39.7044 19.2633 39.9087 20.9252 39.9087C21.7433 39.9087 22.5503 39.8584 23.3429 39.7626V26.0522H28.741H28.7418Z" fill="white"/>
</svg>
