<svg width="41" height="40" viewBox="0 0 41 40" fill="none" xmlns="http://www.w3.org/2000/svg">
<mask id="mask0_6299_114" style="mask-type:luminance" maskUnits="userSpaceOnUse" x="0" y="0" width="41" height="40">
<path d="M20.3498 0C31.3716 0 40.3045 8.93443 40.3045 19.9546C40.3045 30.9764 31.37 39.9092 20.3498 39.9092C9.32791 39.9092 0.39502 30.9748 0.39502 19.9546C0.39502 8.93282 9.32952 0 20.3498 0Z" fill="white"/>
</mask>
<g mask="url(#mask0_6299_114)">
<path d="M20.3502 0C31.3721 0 40.305 8.93443 40.305 19.9546C40.305 30.9764 31.3705 39.9092 20.3502 39.9092C9.3284 39.9092 0.395508 30.9748 0.395508 19.9546C0.395508 8.93282 9.33001 0 20.3502 0Z" fill="white"/>
<path d="M20.3183 -3.42969C10.5376 -3.42969 7.67657 -3.42002 7.12048 -3.37327C5.11372 -3.20564 3.86454 -2.88972 2.50413 -2.21275C1.45482 -1.69212 0.627937 -1.08768 -0.18766 -0.241466C-1.67379 1.30268 -2.57481 3.20143 -2.9004 5.458C-3.05836 6.55406 -3.10511 6.77649 -3.11478 12.3744C-3.118 14.2409 -3.11478 16.6958 -3.11478 19.9888C-3.11478 29.7646 -3.1035 32.6224 -3.05675 33.1784C-2.89396 35.132 -2.58771 36.3618 -1.93974 37.7061C-0.700228 40.2802 1.66758 42.2112 4.45608 42.9333C5.42158 43.1815 6.48864 43.3185 7.8571 43.3846C8.43736 43.4104 14.3512 43.4281 20.2684 43.4281C26.1855 43.4281 32.1026 43.4217 32.6683 43.3927C34.2544 43.3185 35.1748 43.1944 36.1934 42.9317C39.0013 42.208 41.3256 40.3044 42.5893 37.6948C43.226 36.3828 43.5483 35.1062 43.6934 33.2558C43.7256 32.8529 43.7385 26.4152 43.7385 19.9871C43.7385 13.5591 43.724 7.13271 43.6918 6.72975C43.5435 4.84873 43.2211 3.58343 42.5651 2.2456C42.0267 1.15117 41.4287 0.333962 40.56 -0.502584C39.0094 -1.98387 37.1138 -2.88489 34.8556 -3.21048C33.7612 -3.36844 33.5436 -3.41518 27.944 -3.42485H20.3183V-3.42969Z" fill="url(#paint0_radial_6299_114)"/>
<path d="M20.3183 -3.42969C10.5376 -3.42969 7.67657 -3.42002 7.12048 -3.37327C5.11372 -3.20564 3.86454 -2.88972 2.50413 -2.21275C1.45482 -1.69212 0.627937 -1.08768 -0.18766 -0.241466C-1.67379 1.30268 -2.57481 3.20143 -2.9004 5.458C-3.05836 6.55406 -3.10511 6.77649 -3.11478 12.3744C-3.118 14.2409 -3.11478 16.6958 -3.11478 19.9888C-3.11478 29.7646 -3.1035 32.6224 -3.05675 33.1784C-2.89396 35.132 -2.58771 36.3618 -1.93974 37.7061C-0.700228 40.2802 1.66758 42.2112 4.45608 42.9333C5.42158 43.1815 6.48864 43.3185 7.8571 43.3846C8.43736 43.4104 14.3512 43.4281 20.2684 43.4281C26.1855 43.4281 32.1026 43.4217 32.6683 43.3927C34.2544 43.3185 35.1748 43.1944 36.1934 42.9317C39.0013 42.208 41.3256 40.3044 42.5893 37.6948C43.226 36.3828 43.5483 35.1062 43.6934 33.2558C43.7256 32.8529 43.7385 26.4152 43.7385 19.9871C43.7385 13.5591 43.724 7.13271 43.6918 6.72975C43.5435 4.84873 43.2211 3.58343 42.5651 2.2456C42.0267 1.15117 41.4287 0.333962 40.56 -0.502584C39.0094 -1.98387 37.1138 -2.88489 34.8556 -3.21048C33.7612 -3.36844 33.5436 -3.41518 27.944 -3.42485H20.3183V-3.42969Z" fill="url(#paint1_radial_6299_114)"/>
<path d="M20.3183 -3.42969C10.5376 -3.42969 7.67657 -3.42002 7.12048 -3.37327C5.11372 -3.20564 3.86454 -2.88972 2.50413 -2.21275C1.45482 -1.69212 0.627937 -1.08768 -0.18766 -0.241466C-1.67379 1.30268 -2.57481 3.20143 -2.9004 5.458C-3.05836 6.55406 -3.10511 6.77649 -3.11478 12.3744C-3.118 14.2409 -3.11478 16.6958 -3.11478 19.9888C-3.11478 29.7646 -3.1035 32.6224 -3.05675 33.1784C-2.89396 35.132 -2.58771 36.3618 -1.93974 37.7061C-0.700228 40.2802 1.66758 42.2112 4.45608 42.9333C5.42158 43.1815 6.48864 43.3185 7.8571 43.3846C8.43736 43.4104 14.3512 43.4281 20.2684 43.4281C26.1855 43.4281 32.1026 43.4217 32.6683 43.3927C34.2544 43.3185 35.1748 43.1944 36.1934 42.9317C39.0013 42.208 41.3256 40.3044 42.5893 37.6948C43.226 36.3828 43.5483 35.1062 43.6934 33.2558C43.7256 32.8529 43.7385 26.4152 43.7385 19.9871C43.7385 13.5591 43.724 7.13271 43.6918 6.72975C43.5435 4.84873 43.2211 3.58343 42.5651 2.2456C42.0267 1.15117 41.4287 0.333962 40.56 -0.502584C39.0094 -1.98387 37.1138 -2.88489 34.8556 -3.21048C33.7612 -3.36844 33.5436 -3.41518 27.944 -3.42485H20.3183V-3.42969Z" fill="url(#paint2_radial_6299_114)"/>
<path d="M20.3183 -3.42969C10.5376 -3.42969 7.67657 -3.42002 7.12048 -3.37327C5.11372 -3.20564 3.86454 -2.88972 2.50413 -2.21275C1.45482 -1.69212 0.627937 -1.08768 -0.18766 -0.241466C-1.67379 1.30268 -2.57481 3.20143 -2.9004 5.458C-3.05836 6.55406 -3.10511 6.77649 -3.11478 12.3744C-3.118 14.2409 -3.11478 16.6958 -3.11478 19.9888C-3.11478 29.7646 -3.1035 32.6224 -3.05675 33.1784C-2.89396 35.132 -2.58771 36.3618 -1.93974 37.7061C-0.700228 40.2802 1.66758 42.2112 4.45608 42.9333C5.42158 43.1815 6.48864 43.3185 7.8571 43.3846C8.43736 43.4104 14.3512 43.4281 20.2684 43.4281C26.1855 43.4281 32.1026 43.4217 32.6683 43.3927C34.2544 43.3185 35.1748 43.1944 36.1934 42.9317C39.0013 42.208 41.3256 40.3044 42.5893 37.6948C43.226 36.3828 43.5483 35.1062 43.6934 33.2558C43.7256 32.8529 43.7385 26.4152 43.7385 19.9871C43.7385 13.5591 43.724 7.13271 43.6918 6.72975C43.5435 4.84873 43.2211 3.58343 42.5651 2.2456C42.0267 1.15117 41.4287 0.333962 40.56 -0.502584C39.0094 -1.98387 37.1138 -2.88489 34.8556 -3.21048C33.7612 -3.36844 33.5436 -3.41518 27.944 -3.42485H20.3183V-3.42969Z" fill="url(#paint3_radial_6299_114)"/>
<path d="M20.2637 9.67578C17.4341 9.67578 17.0798 9.68741 15.9685 9.73893C14.859 9.79045 14.1021 9.96494 13.44 10.2225C12.7547 10.4884 12.1741 10.844 11.5952 11.4224C11.0163 12.0007 10.6603 12.5807 10.3925 13.2637C10.1347 13.9251 9.95833 14.6812 9.90843 15.788C9.85852 16.8981 9.84521 17.2521 9.84521 20.0755C9.84521 22.899 9.85852 23.253 9.90843 24.3631C9.96 25.4698 10.1347 26.226 10.3925 26.8874C10.6587 27.5721 11.0147 28.152 11.5935 28.7304C12.1724 29.3087 12.753 29.6643 13.4384 29.9302C14.1004 30.1878 14.859 30.3623 15.9669 30.4138C17.0781 30.4636 17.4324 30.4769 20.262 30.4769C23.0916 30.4769 23.4459 30.4653 24.5572 30.4138C25.6667 30.3623 26.4236 30.1878 27.0873 29.9302C27.7727 29.6643 28.3533 29.3087 28.9321 28.7304C29.511 28.152 29.867 27.5721 30.1349 26.889C30.391 26.2276 30.5674 25.4715 30.6189 24.3647C30.6688 23.2546 30.6821 22.9023 30.6821 20.0772C30.6821 17.2521 30.6688 16.8981 30.6189 15.7897C30.5674 14.6829 30.391 13.9267 30.1349 13.2653C29.8687 12.5807 29.5127 12.0007 28.9321 11.4224C28.3533 10.844 27.7727 10.4884 27.0873 10.2225C26.4236 9.96494 25.665 9.79045 24.5572 9.73893C23.4459 9.68908 23.0916 9.67578 20.262 9.67578H20.2653H20.2637ZM19.3288 11.5503C19.6066 11.5503 19.916 11.5503 20.2637 11.5503C23.045 11.5503 23.3744 11.5603 24.474 11.6102C25.4904 11.6567 26.041 11.8262 26.4086 11.9691C26.8944 12.1569 27.242 12.3829 27.6063 12.7468C27.9707 13.1108 28.1969 13.4581 28.3865 13.9434C28.5296 14.309 28.6993 14.859 28.7458 15.8744C28.7957 16.9712 28.8074 17.3003 28.8074 20.0755C28.8074 22.8508 28.7957 23.1798 28.7458 24.2766C28.6993 25.2904 28.5296 25.8404 28.3865 26.2077C28.1986 26.6929 27.9723 27.0386 27.6063 27.4025C27.242 27.7665 26.896 27.9925 26.4086 28.1803C26.0427 28.3232 25.4904 28.4927 24.474 28.5392C23.3761 28.5891 23.045 28.6007 20.2637 28.6007C17.4823 28.6007 17.1529 28.5891 16.0534 28.5392C15.037 28.4927 14.4864 28.3232 14.1187 28.1803C13.633 27.9925 13.2853 27.7665 12.921 27.4025C12.5567 27.0386 12.3305 26.6929 12.1408 26.2077C11.9978 25.8421 11.8281 25.292 11.7815 24.2766C11.7316 23.1798 11.7216 22.8508 11.7216 20.0739C11.7216 17.2969 11.7316 16.9696 11.7815 15.8728C11.8281 14.859 11.9978 14.309 12.1408 13.9417C12.3305 13.4564 12.555 13.1091 12.921 12.7452C13.2853 12.3812 13.633 12.1552 14.1187 11.9674C14.4864 11.8245 15.037 11.655 16.0534 11.6085C17.0149 11.5653 17.3875 11.552 19.3288 11.5503ZM25.8247 13.277C25.1344 13.277 24.5738 13.8353 24.5738 14.525C24.5738 15.2147 25.1344 15.773 25.8247 15.773C26.5151 15.773 27.074 15.2147 27.074 14.525C27.074 13.8353 26.5134 13.277 25.8247 13.277ZM20.2637 14.7344C17.3093 14.7344 14.9139 17.1258 14.9139 20.0755C14.9139 23.0253 17.3093 25.415 20.2637 25.415C23.218 25.415 25.6135 23.0253 25.6135 20.0755C25.6135 17.1258 23.218 14.7344 20.2637 14.7344ZM20.2637 16.6089C22.1817 16.6089 23.7371 18.1611 23.7371 20.0755C23.7371 21.99 22.1817 23.5421 20.2637 23.5421C18.3457 23.5421 16.7903 21.99 16.7903 20.0755C16.7903 18.1611 18.3457 16.6089 20.2637 16.6089Z" fill="white"/>
</g>
<defs>
<radialGradient id="paint0_radial_6299_114" cx="0" cy="0" r="1" gradientUnits="userSpaceOnUse" gradientTransform="translate(42.1516 18.8612) rotate(164.25) scale(30.0145 21.6246)">
<stop stop-color="#FF005F"/>
<stop offset="1" stop-color="#FC01D8"/>
</radialGradient>
<radialGradient id="paint1_radial_6299_114" cx="0" cy="0" r="1" gradientUnits="userSpaceOnUse" gradientTransform="translate(10.8352 47.062) rotate(-90) scale(37.4968 39.7834)">
<stop stop-color="#FFCC00"/>
<stop offset="0.12" stop-color="#FFCC00"/>
<stop offset="0.57" stop-color="#FE4A05"/>
<stop offset="0.69" stop-color="#FF0F3F"/>
<stop offset="1" stop-color="#FE0657" stop-opacity="0"/>
</radialGradient>
<radialGradient id="paint2_radial_6299_114" cx="0" cy="0" r="1" gradientUnits="userSpaceOnUse" gradientTransform="translate(22.2338 42.9697) rotate(-59.8698) scale(15.5059 20.1861)">
<stop stop-color="#FFCC00"/>
<stop offset="1" stop-color="#FFCC00" stop-opacity="0"/>
</radialGradient>
<radialGradient id="paint3_radial_6299_114" cx="0" cy="0" r="1" gradientUnits="userSpaceOnUse" gradientTransform="translate(4.11403 -2.9231) rotate(164.27) scale(29.6826 10.1122)">
<stop stop-color="#780CFF"/>
<stop offset="1" stop-color="#820BFF" stop-opacity="0"/>
</radialGradient>
</defs>
</svg>
