<svg width="35" height="22" viewBox="0 0 35 22" fill="none" xmlns="http://www.w3.org/2000/svg">
<path d="M22.2216 2.35352H12.75V19.6474H22.2216V2.35352Z" fill="#FF5A00"/>
<path d="M13.3807 11C13.3807 7.48641 15.006 4.36796 17.5 2.35307C15.6645 0.886408 13.3492 0 10.8237 0C4.84087 0 0 4.91974 0 11C0 17.0803 4.84087 22 10.8237 22C13.3492 22 15.6645 21.1136 17.5 19.6469C15.0025 17.6605 13.3807 14.5136 13.3807 11Z" fill="#EB001B"/>
<path d="M35 11C35 17.0803 30.1591 22 24.1763 22C21.6508 22 19.3355 21.1136 17.5 19.6469C20.0255 17.6285 21.6193 14.5136 21.6193 11C21.6193 7.48641 19.994 4.36796 17.5 2.35307C19.332 0.886408 21.6473 0 24.1728 0C30.1591 0 35 4.95178 35 11Z" fill="#F79E1B"/>
</svg>
