<svg width="74" height="22" viewBox="0 0 74 22" fill="none" xmlns="http://www.w3.org/2000/svg">
<path d="M2 1.00309H8.52436C9.11748 1.00309 10.8968 0.805207 11.6877 3.57559C12.2808 5.35655 13.0716 8.12693 14.2579 12.2825H14.6533C15.8395 7.92905 16.8281 4.96078 17.2235 3.57559C18.0143 0.805207 19.9914 1.00309 20.7822 1.00309H26.9112V20H20.5845V8.72059H20.1891L16.8281 20H12.0831L8.72206 8.72059H8.12894V20H2M29.4814 1.00309H35.808V12.2825H36.4011L40.553 2.98194C41.3438 1.20098 43.1232 1.00309 43.1232 1.00309H49.0544V20H42.7278V8.72059H42.3324L38.1805 18.0212C37.3897 19.8021 35.4126 20 35.4126 20H29.4814M57.5559 14.2614V20H51.6246V10.1058H71C70.2092 12.4804 67.4413 14.2614 64.2779 14.2614" fill="#0F754E"/>
<path d="M71.8459 9C72.6634 5.4 70.2109 1 64.8973 1H51C51.4087 5.2 55.0874 9 58.9705 9" fill="url(#paint0_linear_6291_236)"/>
<defs>
<linearGradient id="paint0_linear_6291_236" x1="69.3935" y1="-1.6" x2="53.0437" y2="-1.6" gradientUnits="userSpaceOnUse">
<stop stop-color="#1F5CD7"/>
<stop offset="1" stop-color="#02AEFF"/>
</linearGradient>
</defs>
</svg>
