<svg width="41" height="40" viewBox="0 0 41 40" fill="none" xmlns="http://www.w3.org/2000/svg">
<path d="M20.7736 0C31.7954 0 40.7283 8.93444 40.7283 19.9546C40.7283 30.9764 31.7938 39.9092 20.7736 39.9092C9.75174 39.9092 0.818848 30.9748 0.818848 19.9546C0.818848 8.93283 9.75335 0 20.7736 0Z" fill="#E60023"/>
<mask id="mask0_6299_105" style="mask-type:luminance" maskUnits="userSpaceOnUse" x="8" y="5" width="26" height="27">
<path d="M33.4655 5.50781H8.08203V31.3698H33.4655V5.50781Z" fill="white"/>
</mask>
<g mask="url(#mask0_6299_105)">
<path d="M33.4886 18.4604C33.4886 25.4413 27.8245 31.1004 20.8388 31.1004C13.853 31.1004 8.18896 25.4413 8.18896 18.4604C8.18896 11.4795 13.853 5.82031 20.8388 5.82031C27.8245 5.82031 33.4886 11.4795 33.4886 18.4604Z" fill="white"/>
<path d="M20.8388 5.82031C13.853 5.82031 8.18896 11.4795 8.18896 18.4604C8.18896 23.8149 11.5239 28.3925 16.2289 30.2349C16.1177 29.2355 16.0177 27.6962 16.2724 26.605C16.5029 25.6186 17.7553 20.322 17.7553 20.322C17.7553 20.322 17.3765 19.5645 17.3765 18.4459C17.3765 16.689 18.3952 15.3753 19.6653 15.3753C20.7453 15.3753 21.2659 16.1845 21.2659 17.1564C21.2659 18.2412 20.5744 19.8627 20.2182 21.3649C19.92 22.6238 20.8501 23.6489 22.0912 23.6489C24.3397 23.6489 26.0676 21.2795 26.0676 17.8608C26.0676 14.8337 23.8916 12.719 20.784 12.719C17.1847 12.719 15.0716 15.4172 15.0716 18.2041C15.0716 19.2905 15.4906 20.4558 16.0129 21.0893C16.116 21.215 16.1322 21.3246 16.0999 21.4519C16.0032 21.8517 15.7904 22.7092 15.7485 22.8849C15.6937 23.1154 15.5648 23.1653 15.3262 23.0541C13.7466 22.3191 12.7586 20.011 12.7586 18.1573C12.7586 14.1697 15.6583 10.5075 21.116 10.5075C25.5035 10.5075 28.9141 13.6329 28.9141 17.8076C28.9141 21.9822 26.1659 25.6701 22.3507 25.6701C21.0693 25.6701 19.8636 25.0044 19.451 24.2195C19.451 24.2195 18.8159 26.6324 18.6628 27.224C18.3775 28.3216 17.607 29.6981 17.0912 30.5379C18.2743 30.9038 19.5332 31.102 20.8372 31.102C27.8229 31.102 33.487 25.4429 33.487 18.462C33.487 11.4811 27.8229 5.82193 20.8372 5.82193L20.8388 5.82031Z" fill="#E60023"/>
</g>
</svg>
