<svg width="41" height="40" viewBox="0 0 41 40" fill="none" xmlns="http://www.w3.org/2000/svg">
<path d="M20.8356 0C31.8574 0 40.7903 8.93444 40.7903 19.9546C40.7903 30.9764 31.8558 39.9092 20.8356 39.9092C9.81375 39.9092 0.880859 30.9748 0.880859 19.9546C0.880859 8.93283 9.81536 0 20.8356 0Z" fill="#25A2DF"/>
<path fill-rule="evenodd" clip-rule="evenodd" d="M11.2871 19.8133C16.3483 17.6148 19.7187 16.1545 21.4095 15.4452C26.2257 13.4353 27.238 13.0887 27.8891 13.0742C28.0342 13.0742 28.3517 13.1032 28.5693 13.2773C28.7434 13.4224 28.7869 13.6094 28.816 13.7544C28.845 13.8995 28.874 14.2025 28.845 14.4346C28.5839 17.1828 27.4572 23.8494 26.8785 26.9151C26.6319 28.2159 26.1548 28.6511 25.6922 28.6946C24.6799 28.7816 23.9127 28.0289 22.944 27.3922C21.4111 26.3945 20.5584 25.7723 19.0675 24.7891C17.346 23.6608 18.4598 23.0386 19.443 22.0264C19.7025 21.7669 24.1432 17.7163 24.2303 17.3553C24.2448 17.3117 24.2448 17.1377 24.1432 17.0523C24.0417 16.9652 23.8966 16.9942 23.7822 17.0232C23.6226 17.0522 21.1935 18.6721 16.4643 21.8684C15.7696 22.3455 15.1491 22.5776 14.5849 22.5631C13.9627 22.5486 12.7764 22.2166 11.8802 21.9265C10.7955 21.5799 9.92829 21.3913 10.0008 20.7837C10.0443 20.4661 10.4779 20.147 11.2887 19.8149L11.2871 19.8133Z" fill="white"/>
</svg>
