<svg width="41" height="40" viewBox="0 0 41 40" fill="none" xmlns="http://www.w3.org/2000/svg">
<rect x="0.457031" width="40" height="40" rx="20" fill="#1F1F1F"/>
<g clip-path="url(#clip0_6299_161)">
<path d="M25.7613 16.0004C27.3665 17.1508 29.3329 17.8277 31.4566 17.8277V13.7303C31.0547 13.7305 30.6538 13.6884 30.2606 13.6048V16.8301C28.137 16.8301 26.1708 16.1532 24.5653 15.0029V23.3646C24.5653 27.5476 21.1832 30.9383 17.0114 30.9383C15.4548 30.9383 14.008 30.4665 12.8062 29.6573C14.1779 31.0636 16.0909 31.9359 18.2072 31.9359C22.3792 31.9359 25.7615 28.5452 25.7615 24.362V16.0004H25.7613ZM27.2369 11.8666C26.4165 10.9681 25.8778 9.80687 25.7613 8.52308V7.99609H24.6279C24.9132 9.62773 25.8864 11.0217 27.2369 11.8666ZM15.4448 26.4475C14.9864 25.845 14.7387 25.1079 14.7398 24.3501C14.7398 22.437 16.2868 20.8857 18.1954 20.8857C18.551 20.8856 18.9045 20.9403 19.2436 21.0481V16.859C18.8474 16.8046 18.4476 16.7814 18.048 16.79V20.0505C17.7088 19.9427 17.3551 19.888 16.9993 19.8882C15.0908 19.8882 13.5439 21.4393 13.5439 23.3526C13.5439 24.7056 14.3171 25.8769 15.4448 26.4475Z" fill="#FF004F"/>
<path d="M24.5649 15.0028C26.1705 16.1532 28.1365 16.83 30.2602 16.83V13.6047C29.0747 13.3515 28.0254 12.7305 27.2364 11.8666C25.8859 11.0216 24.9128 9.62765 24.6275 7.99609H21.6503V24.3619C21.6436 26.2698 20.0993 27.8146 18.1948 27.8146C17.0726 27.8146 16.0756 27.2783 15.4442 26.4474C14.3167 25.8769 13.5434 24.7055 13.5434 23.3527C13.5434 21.4395 15.0903 19.8883 16.9988 19.8883C17.3645 19.8883 17.7169 19.9454 18.0475 20.0506V16.7901C13.949 16.875 10.6528 20.2326 10.6528 24.362C10.6528 26.4233 11.4736 28.292 12.8058 29.6575C14.0077 30.4665 15.4544 30.9385 17.0111 30.9385C21.1829 30.9385 24.565 27.5476 24.565 23.3646L24.5649 15.0028Z" fill="white"/>
<path d="M30.2604 13.606V12.7341C29.1914 12.7357 28.1435 12.4356 27.2366 11.868C28.0394 12.7492 29.0965 13.3569 30.2604 13.6062M24.6276 7.99741C24.6004 7.84151 24.5795 7.68458 24.565 7.52698V7H20.4543V23.3659C20.4478 25.2737 18.9035 26.8185 16.9989 26.8185C16.459 26.8193 15.9264 26.6927 15.4443 26.449C16.0757 27.2797 17.0727 27.8159 18.1949 27.8159C20.0993 27.8159 21.6437 26.2713 21.6504 24.3634V7.9975L24.6276 7.99741ZM18.0479 16.7914V15.863C17.7044 15.816 17.3581 15.7924 17.0114 15.7925C12.8391 15.7925 9.45703 19.1834 9.45703 23.3659C9.45703 25.9883 10.7862 28.2993 12.8061 29.6587C11.4739 28.2934 10.6531 26.4246 10.6531 24.3633C10.6531 20.234 13.9492 16.8763 18.0479 16.7914Z" fill="#00F2EA"/>
</g>
<defs>
<clipPath id="clip0_6299_161">
<rect width="22" height="25" fill="white" transform="translate(9.45703 7)"/>
</clipPath>
</defs>
</svg>
