<svg width="68" height="22" viewBox="0 0 68 22" fill="none" xmlns="http://www.w3.org/2000/svg">
<path d="M29.4655 21.6823H23.957L27.4024 0.385742H32.9106L29.4655 21.6823Z" fill="#00579F"/>
<path d="M49.4341 0.90668C48.3476 0.475774 46.6243 0 44.4934 0C39.0536 0 35.223 2.89981 35.1995 7.04566C35.1543 10.1045 37.9421 11.8034 40.0272 12.8233C42.1583 13.8655 42.8828 14.5457 42.8828 15.4747C42.8611 16.9014 41.1607 17.5591 39.5747 17.5591C37.3755 17.5591 36.1971 17.22 34.4063 16.4262L33.681 16.086L32.9102 20.8666C34.2021 21.455 36.5824 21.9771 39.0536 22C44.8335 22 48.5964 19.1451 48.641 14.727C48.6629 12.3027 47.1909 10.445 44.0172 8.92708C42.0905 7.95265 40.9107 7.2956 40.9107 6.29858C40.9332 5.3922 41.9086 4.46384 44.0834 4.46384C45.8742 4.41837 47.19 4.84867 48.1867 5.27928L48.6849 5.50542L49.4341 0.90668Z" fill="#00579F"/>
<path d="M56.7569 14.1377C57.2105 12.9142 58.9561 8.17909 58.9561 8.17909C58.9332 8.22456 59.4089 6.93305 59.6809 6.14019L60.0658 7.97523C60.0658 7.97523 61.109 13.0729 61.3355 14.1377C60.4746 14.1377 57.8449 14.1377 56.7569 14.1377ZM63.5564 0.385742H59.2956C57.9817 0.385742 56.9834 0.770577 56.4165 2.15273L48.2344 21.682H54.0143C54.0143 21.682 54.9658 19.0535 55.1704 18.4874C55.8044 18.4874 61.4271 18.4874 62.2428 18.4874C62.4009 19.2351 62.9 21.682 62.9 21.682H68.0004L63.5564 0.385742Z" fill="#00579F"/>
<path d="M19.3578 0.385742L13.9631 14.908L13.3736 11.9627C12.3763 8.56423 9.24839 4.87186 5.75781 3.03592L10.6991 21.6597H16.5241L25.1825 0.385742H19.3578Z" fill="#00579F"/>
<path d="M8.95327 0.385742H0.0906679L0 0.816046C6.91338 2.58333 11.492 6.84331 13.3731 11.9636L11.4465 2.17592C11.1293 0.815745 10.1545 0.430609 8.95327 0.385742Z" fill="#FAA61A"/>
</svg>
