<svg width="41" height="40" viewBox="0 0 41 40" fill="none" xmlns="http://www.w3.org/2000/svg">
<path d="M20.2594 0C31.2812 0 40.2141 8.93444 40.2141 19.9546C40.2141 30.9764 31.2796 39.9092 20.2594 39.9092C9.23756 39.9092 0.304688 30.9748 0.304688 19.9546C0.304688 8.93283 9.23917 0 20.2594 0Z" fill="#0077FF"/>
<path d="M20.8874 27.8928C13.4487 27.8928 9.20465 22.7784 9.02734 14.2695H12.7539C12.8764 20.5154 15.623 23.1605 17.799 23.7053V14.2695H21.308V19.6563C23.4566 19.4242 25.7132 16.9694 26.4756 14.2695H29.9846C29.3995 17.5964 26.9511 20.0512 25.2103 21.0602C26.9511 21.879 29.7396 24.0196 30.8002 27.8928H26.9382C26.1081 25.3026 24.0417 23.2975 21.308 23.0251V27.8928H20.8857H20.8874Z" fill="white"/>
</svg>
