<svg width="41" height="40" viewBox="0 0 41 40" fill="none" xmlns="http://www.w3.org/2000/svg">
<path d="M20.0167 0C31.0386 0 39.9715 8.93444 39.9715 19.9546C39.9715 30.9764 31.037 39.9092 20.0167 39.9092C8.9949 39.9092 0.0620117 30.9748 0.0620117 19.9546C0.0620117 8.93283 8.99651 0 20.0167 0Z" fill="black"/>
<path d="M20.0167 0C31.0386 0 39.9715 8.93444 39.9715 19.9546C39.9715 30.9764 31.037 39.9092 20.0167 39.9092C8.9949 39.9092 0.0620117 30.9748 0.0620117 19.9546C0.0620117 8.93283 8.99651 0 20.0167 0Z" fill="white" fill-opacity="0.12"/>
<mask id="mask0_6299_139" style="mask-type:luminance" maskUnits="userSpaceOnUse" x="0" y="0" width="41" height="40">
<path d="M40.062 0H0.124023V40H40.062V0Z" fill="white"/>
</mask>
<g mask="url(#mask0_6299_139)">
<path d="M26.1405 11.8984H28.8823L22.862 18.7746L29.8945 28.1023H24.3756L20.0542 22.4334L15.1074 28.1023H12.3656L18.7421 20.7474L12.0078 11.8984H17.6638L21.5677 17.0757L26.1389 11.8984H26.1405ZM25.1815 26.4872H26.7015L16.8675 13.4523H15.2347L25.1815 26.4872Z" fill="white"/>
</g>
</svg>
