<svg width="212" height="56" viewBox="0 0 212 56" fill="none" xmlns="http://www.w3.org/2000/svg">
<path d="M189.943 16.1248L169.692 43.9298L173.931 46.848L194.182 19.043L189.943 16.1248ZM123.15 55.6048L132.096 55.2957L138.535 13.2822L140.419 51.6858H145.992L143.242 1.06898L135.394 1.53157L127.932 49.6927L124.398 8.29099L119.304 8.83789L123.15 55.6048ZM63.1841 51.4566L57.6883 10.9779V10.8244L51.6469 10.2862L37.5098 48.0002L42.5329 49.7662L53.5996 18.736L57.8385 52.1484L63.1841 51.4566ZM43.7964 17.6595V17.506L37.2049 15.0483L22.8469 35.7113L24.888 20.9625L17.9807 18.5047L0 43.9298L4.15941 47.0772L19.2309 25.342L17.022 42.9312L22.4383 44.2281L36.0938 24.8729L29.8139 45.7629L29.7366 45.8407L34.7707 47.315L43.7964 17.6595ZM90.968 11.2157L95.2069 55.7648L100.466 55.1487L95.0501 1.22461L88.2996 0.839844L75.035 54.6061L80.2149 55.9031L90.968 11.2157ZM206.426 48.1602L206.583 43.0911C202.267 42.9376 191.355 41.4785 191.355 37.3304C191.355 32.7909 202.501 26.6541 211.136 22.3524L208.706 17.813C201.637 21.4986 185.954 28.7962 185.954 37.3217C185.954 45.9229 199.375 47.998 206.44 48.1515M178.64 33.2643L182.015 28.5779L174.167 13.8961L169.528 16.2739L178.64 33.2643ZM151.718 32.4948H163.021V27.4928H151.718V32.4948ZM162.321 46.9345H167.737V13.9739H162.314L162.321 46.9345ZM149.522 50.6871L154.936 50.458L152.818 5.98453L147.481 6.21583L149.522 50.6871ZM104.939 55.6805C112.867 52.3775 119.695 46.0807 119.695 33.9431C119.695 26.8097 116.399 18.9673 109.649 14.9726C112.317 13.9739 114.508 11.7453 114.508 8.6736C114.508 4.75672 111.29 2.29895 107.131 2.29895C104.489 2.30169 101.924 3.16659 99.8412 4.75672L102.507 8.6736C103.612 7.67493 105.253 6.82973 106.901 6.82973C108.158 6.82973 109.256 7.52145 109.256 8.82708C109.256 10.6709 106.274 11.9766 104.233 11.9766L103.448 16.8165C110.983 20.8868 114.051 26.4941 114.051 33.9431C114.051 44.159 108.164 49.1523 102.278 51.3032L104.939 55.6805ZM95.9911 43.8195L80.2944 43.5882L80.2193 48.0412L95.9955 48.2725L95.9911 43.8195ZM44.4347 38.9365H58.7177V34.2522H44.4347V38.9365ZM71.0413 54.1436L69.4707 13.0509L81.7943 13.9739L82.2648 8.9049L64.0566 7.52145L65.7818 54.3748L71.0413 54.1436Z" fill="white"/>
<path d="M68.2043 18.7109H141.644C159.758 18.7109 159.758 42.2209 141.644 42.2209H68.2043C50.3849 42.2209 50.3849 18.7109 68.2043 18.7109Z" fill="#FF0000"/>
<path d="M70.0911 25.0253C71.3524 25.0253 72.3354 25.9267 72.3354 27.5804V35.3817H71.1204V31.668H66.221L64.1159 35.3817H62.7332L67.6657 26.6617C68.2643 25.596 69.0927 25.0253 70.0955 25.0253M66.8705 30.5267H71.1249V27.6106C71.1249 26.6487 70.6654 26.1818 70.0646 26.1818C69.5278 26.1818 69.1589 26.4974 68.7591 27.1891L66.8705 30.5267ZM76.762 26.1515C75.5493 26.1515 74.5973 27.0681 74.5973 28.3456C74.612 28.7617 74.7516 29.1643 74.9986 29.5032C75.2456 29.8422 75.5891 30.1025 75.9862 30.2517C76.3834 30.401 76.8166 30.4325 77.232 30.3424C77.6473 30.2523 78.0264 30.0445 78.3219 29.745C78.6174 29.4455 78.8162 29.0675 78.8937 28.6582C78.9711 28.2488 78.9238 27.8262 78.7574 27.443C78.5911 27.0598 78.3132 26.7331 77.9584 26.5034C77.6035 26.2737 77.1875 26.1514 76.762 26.1515ZM73.3713 35.3817V28.4969C73.3713 26.4671 74.7851 25.0102 76.7665 25.0102C77.6134 24.9969 78.4342 25.2974 79.0643 25.8513C79.6943 26.4053 80.0872 27.1719 80.164 27.9974C80.2409 28.8229 79.996 29.6463 79.4786 30.3026C78.9612 30.9588 78.2094 31.3995 77.3739 31.5362L82.3352 35.3839H80.4907L74.5929 30.8596V35.3839L73.3713 35.3817ZM80.2544 25.1442H87.5195V26.2877H84.5154V35.3817H83.3115V26.2877H80.2853V25.1442H80.2544ZM92.5117 34.2382V35.3817H88.6483C86.742 35.3817 85.8827 34.3139 85.8827 33.1574C85.8827 32.3143 86.2361 31.7134 86.8038 30.7515L90.1592 25.1442H91.542L87.8707 31.3373C87.4091 32.1198 87.102 32.5262 87.102 33.0515C87.102 33.6524 87.5438 34.2382 88.7919 34.2382H92.5117Z" fill="white"/>
<path d="M97.5586 35.531C94.3181 35.531 91.7205 33.4428 91.7205 30.2998C91.7122 29.6086 91.8446 28.9227 92.1098 28.2819C92.375 27.6412 92.7677 27.0585 93.2651 26.5677C93.7626 26.0769 94.3548 25.6878 95.0073 25.423C95.6598 25.1582 96.3597 25.0231 97.0661 25.0254C99.9708 25.0254 102.074 27.159 102.074 29.9691V30.5419H92.9663C93.1032 33.1575 95.3608 34.3745 97.5741 34.3745C99.233 34.3745 100.887 33.592 101.782 32.429V33.7822C100.861 34.9084 99.3523 35.5245 97.5586 35.5245M93.0326 29.3984H100.79C100.545 27.5199 99.1159 26.1819 97.0572 26.1819C96.1102 26.1817 95.1923 26.5018 94.4589 27.088C93.7254 27.6741 93.2215 28.4904 93.0326 29.3984Z" fill="white"/>
<path d="M105.883 35.382H102.791V25.1445H105.28C107.184 25.1445 108.373 26.3183 108.373 27.7385C108.379 28.1124 108.291 28.482 108.117 28.8148C107.943 29.1477 107.688 29.4335 107.374 29.6472C108.602 30.0536 109.415 31.0458 109.415 32.3536C109.415 34.1131 107.957 35.3799 105.881 35.3799M103.992 34.2364H105.844C107.257 34.2364 108.178 33.456 108.178 32.3579C108.178 31.2598 107.273 30.5097 105.998 30.5097H104.01V34.2385L103.992 34.2364ZM103.992 29.3813H105.318C106.407 29.3813 107.145 28.7328 107.145 27.8185C107.145 26.9041 106.407 26.2859 105.179 26.2859H104.01V29.3748L103.992 29.3813Z" fill="white"/>
<path d="M115.468 35.5309C112.196 35.5309 109.892 33.4428 109.892 30.2998C109.892 27.3535 112.335 25.0254 115.16 25.0254C117.495 25.0254 118.971 26.5385 118.971 28.3154C118.971 30.0598 117.665 31.6983 115.437 31.6983C113.533 31.6983 112.103 30.1355 112.103 28.5424C112.099 28.092 112.194 27.646 112.382 27.2346C111.56 28.0517 111.101 29.1533 111.105 30.2998C111.105 33.0818 113.133 34.3593 115.437 34.3593C117.542 34.3593 118.986 33.0623 119.192 31.4433H120.451C120.009 34.1496 117.84 35.5309 115.459 35.5309M113.17 28.3759C113.162 28.8195 113.29 29.2553 113.536 29.6278C113.782 30.0003 114.136 30.2925 114.553 30.4673C114.97 30.642 115.43 30.6913 115.876 30.6089C116.321 30.5265 116.731 30.3161 117.054 30.0045C117.377 29.693 117.598 29.2944 117.688 28.8597C117.778 28.4249 117.734 27.9737 117.561 27.5635C117.388 27.1534 117.095 26.8029 116.717 26.5568C116.34 26.3108 115.897 26.1802 115.443 26.1819C115.146 26.1755 114.85 26.2277 114.573 26.3353C114.296 26.4429 114.044 26.6038 113.832 26.8084C113.621 27.013 113.453 27.2572 113.339 27.5264C113.225 27.7957 113.168 28.0846 113.17 28.3759Z" fill="white"/>
<path d="M123.487 35.382H120.954V25.1445H123.487C126.606 25.1445 128.91 27.2954 128.91 30.2546C128.91 33.2139 126.609 35.382 123.487 35.382ZM122.162 34.2385H123.499C125.957 34.2385 127.662 32.5697 127.662 30.2546C127.662 27.9395 125.957 26.2729 123.499 26.2729H122.162V34.2385Z" fill="white"/>
<path d="M130.906 32.2086C130.906 32.8701 131.089 33.3824 131.443 33.7218C131.796 34.0612 132.326 34.2319 132.989 34.2319H137.21V35.3754H132.996C131.966 35.3754 131.167 35.0901 130.566 34.5324C129.965 33.9747 129.682 33.1943 129.682 32.2022L129.698 25.1379H132.748C133.305 25.1235 133.858 25.2368 134.363 25.4687C134.809 25.679 135.186 26.0069 135.452 26.4155C135.704 26.8404 135.836 27.3229 135.836 27.814C135.836 28.3052 135.704 28.7877 135.452 29.2126C135.185 29.6201 134.808 29.9476 134.363 30.1594C133.858 30.3913 133.305 30.5046 132.748 30.4901H130.891V32.2022L130.906 32.2086ZM132.764 29.3985C133.393 29.3985 133.868 29.2494 134.177 28.9662C134.329 28.8197 134.449 28.6453 134.531 28.4531C134.612 28.2609 134.655 28.0547 134.655 27.8465C134.655 27.6382 134.612 27.4321 134.531 27.2399C134.449 27.0477 134.329 26.8733 134.177 26.7267C133.778 26.4152 133.274 26.2611 132.764 26.2944H130.906V29.405L132.764 29.3985Z" fill="white"/>
<path d="M139.707 35.516C138.54 35.516 137.635 34.7206 137.635 33.1577V25.1445H138.847V33.1577C138.847 33.9834 139.247 34.3444 139.731 34.3444C140.162 34.3444 140.546 34.0591 140.992 33.2312L145.231 25.1445H146.614L142.013 33.9143C141.412 35.088 140.584 35.5225 139.707 35.5225" fill="white"/>
</svg>
